<svg width="211" height="114" viewBox="0 0 211 114" fill="none" xmlns="http://www.w3.org/2000/svg">
<mask id="mask0_20_56" style="mask-type:luminance" maskUnits="userSpaceOnUse" x="28" y="7" width="55" height="100">
<path d="M73.9815 52.25C73.9931 51.5185 74 50.7846 74 50.0484C74 22.5981 65.7166 9.5 55.5 9.5C45.2834 9.5 37 22.5981 37 50.0484C37 50.7846 37.0069 51.5209 37.0185 52.25" stroke="white" stroke-width="4" stroke-linecap="round" stroke-linejoin="round"/>
<path d="M76.3125 52.25H34.6875C32.1332 52.25 30.0625 54.3766 30.0625 57V99.75C30.0625 102.373 32.1332 104.5 34.6875 104.5H76.3125C78.8668 104.5 80.9375 102.373 80.9375 99.75V57C80.9375 54.3766 78.8668 52.25 76.3125 52.25Z" fill="white" stroke="white" stroke-width="4" stroke-linecap="round" stroke-linejoin="round"/>
</mask>
<g mask="url(#mask0_20_56)">
<path d="M0 0H111V114H0V0Z" fill="#699BF7"/>
</g>
<path d="M62.2 85.95V84.35H59.15V75.15H73.6V95.2C68.8667 97 63.95 97.9 58.85 97.9C55.35 97.9 52.45 97.4833 50.15 96.65C47.8833 95.8167 46.0833 94.5833 44.75 92.95C43.4167 91.2833 42.4833 89.2333 41.95 86.8C41.45 84.3333 41.2 81.4667 41.2 78.2C41.2 74.7333 41.5167 71.7667 42.15 69.3C42.7833 66.8 43.8333 64.7667 45.3 63.2C46.7667 61.6 48.7167 60.4333 51.15 59.7C53.5833 58.9667 56.6 58.6 60.2 58.6C61 58.6 61.9333 58.65 63 58.75C64.1 58.8167 65.2 58.9333 66.3 59.1C67.4 59.2333 68.4333 59.4 69.4 59.6C70.4 59.7667 71.2 59.95 71.8 60.15L70 69.35C68.3667 69.0833 66.8167 68.8833 65.35 68.75C63.8833 68.5833 62.5167 68.5 61.25 68.5C58.6167 68.5 56.7667 68.7 55.7 69.1C54.6333 69.5 54.1 70.3 54.1 71.5V88.5H58.05C59.5167 88.5 60.5667 88.35 61.2 88.05C61.8667 87.7167 62.2 87.0167 62.2 85.95Z" fill="white"/>
<path d="M85.5714 87.1C85.5714 83.558 86.3964 80.929 88.0464 79.213C89.6964 77.475 92.3694 76.606 96.0654 76.606C99.7614 76.606 102.434 77.475 104.084 79.213C105.734 80.929 106.559 83.558 106.559 87.1C106.559 90.642 105.734 93.282 104.084 95.02C102.434 96.736 99.7614 97.594 96.0654 97.594C92.4574 97.594 89.8064 96.747 88.1124 95.053C86.4184 93.359 85.5714 90.708 85.5714 87.1ZM94.0854 84.064V91.819H95.3064C96.2744 91.819 96.9674 91.72 97.3854 91.522C97.8254 91.324 98.0454 90.862 98.0454 90.136V82.381H96.8244C95.8564 82.381 95.1524 82.48 94.7124 82.678C94.2944 82.876 94.0854 83.338 94.0854 84.064ZM122.796 97V83.14H122.235C121.883 83.14 121.542 83.151 121.212 83.173C120.904 83.195 120.629 83.272 120.387 83.404C120.145 83.514 119.958 83.69 119.826 83.932C119.694 84.174 119.628 84.515 119.628 84.955V97H111.708V77.2H115.668L117.45 79.015C119.056 77.409 121.168 76.606 123.786 76.606C126.382 76.606 128.274 77.145 129.462 78.223C131.112 77.145 132.982 76.606 135.072 76.606C137.206 76.606 138.856 77.013 140.022 77.827C141.21 78.619 141.804 79.73 141.804 81.16V97H133.884V83.14H133.323C133.015 83.14 132.707 83.151 132.399 83.173C132.091 83.195 131.816 83.261 131.574 83.371C131.354 83.459 131.156 83.613 130.98 83.833C130.826 84.053 130.738 84.35 130.716 84.724V97H122.796ZM146.734 87.1C146.734 83.558 147.559 80.929 149.209 79.213C150.859 77.475 153.532 76.606 157.228 76.606C160.924 76.606 163.597 77.475 165.247 79.213C166.897 80.929 167.722 83.558 167.722 87.1C167.722 90.642 166.897 93.282 165.247 95.02C163.597 96.736 160.924 97.594 157.228 97.594C153.62 97.594 150.969 96.747 149.275 95.053C147.581 93.359 146.734 90.708 146.734 87.1ZM155.248 84.064V91.819H156.469C157.437 91.819 158.13 91.72 158.548 91.522C158.988 91.324 159.208 90.862 159.208 90.136V82.381H157.987C157.019 82.381 156.315 82.48 155.875 82.678C155.457 82.876 155.248 83.338 155.248 84.064ZM172.87 97V77.2H176.83L179.008 79.411C180.592 77.959 182.55 77.024 184.882 76.606L185.344 84.097C185.036 84.097 184.662 84.141 184.222 84.229C183.782 84.317 183.331 84.427 182.869 84.559C182.429 84.691 182.022 84.856 181.648 85.054C181.274 85.23 180.988 85.439 180.79 85.681V97H172.87ZM199.078 76.606C205.414 76.606 208.582 78.784 208.582 83.14V97H204.622L202.378 94.756C201.982 95.196 201.509 95.592 200.959 95.944C200.431 96.296 199.859 96.593 199.243 96.835C198.627 97.077 198 97.264 197.362 97.396C196.724 97.528 196.108 97.594 195.514 97.594C194.392 97.594 193.38 97.473 192.478 97.231C191.598 97.011 190.85 96.648 190.234 96.142C189.618 95.636 189.145 94.965 188.815 94.129C188.485 93.293 188.32 92.27 188.32 91.06C188.32 86.308 191.906 83.932 199.078 83.932H200.662V82.513C200.244 82.491 199.859 82.469 199.507 82.447C199.177 82.425 198.869 82.414 198.583 82.414C195.613 82.414 193.05 82.777 190.894 83.503L189.937 77.827C192.577 77.013 195.624 76.606 199.078 76.606ZM196.306 90.202V91.819H197.956C199.1 91.819 199.848 91.687 200.2 91.423C200.508 91.137 200.662 90.796 200.662 90.4V88.519H199.045C198.099 88.519 197.406 88.618 196.966 88.816C196.526 89.014 196.306 89.476 196.306 90.202Z" fill="#100F0F"/>
</svg>
